# xmcd
#
# Track frame offsets:
#	150
#	24219
#	37509
#	63429
#	83291
#	108286
#	126210
#	146369
#	174744
#	214152
#
# Disc length: 3141 seconds
#
# Revision: 0
# Processed by: cddbd v1.5.2PL0 Copyright (c) Steve Scherf et al.
# Submitted via: dBpowerAMP V4.0
#
DISCID=730c430a
DTITLE=FRANCKYE IL GALLO E I MAIALI DEL RITMO - DON'T SHOOT THE PIGS
DYEAR=2010
DGENRE=BLUES
TTITLE0=Your Hoodoo Man
TTITLE1=Bogie Man
TTITLE2=Scratch My Back
TTITLE3=Divorce Court on TV
TTITLE4=Long as I have Jou
TTITLE5=Ridin' High
TTITLE6=Night Ridin' Daddy
TTITLE7=Hoochie Coochie Man
TTITLE8=Lone Some Bedroom Blues 
TTITLE9=Got My Mojo Working
EXTD=
EXTT0=
EXTT1=
EXTT2=
EXTT3=
EXTT4=
EXTT5=
EXTT6=
EXTT7=
EXTT8=
EXTT9=
PLAYORDER=
